<svg width="41" height="41" viewBox="0 0 41 41" fill="none" xmlns="http://www.w3.org/2000/svg">
<path fill-rule="evenodd" clip-rule="evenodd" d="M14.8687 11.0332H26.2662C26.7055 11.0332 27.0845 11.0332 27.3966 11.0587C27.7261 11.0856 28.0538 11.145 28.3691 11.3057C28.8395 11.5454 29.2219 11.9278 29.4616 12.3982C29.6223 12.7135 29.6817 13.0412 29.7086 13.3707C29.7341 13.6828 29.7341 14.0618 29.7341 14.5011V25.8987C29.7341 26.338 29.7341 26.7169 29.7086 27.0291C29.6817 27.3585 29.6223 27.6862 29.4616 28.0015C29.2219 28.4719 28.8395 28.8544 28.3691 29.0941C28.0538 29.2547 27.7261 29.3141 27.3966 29.3411C27.0845 29.3666 26.7055 29.3666 26.2662 29.3665H14.8686C14.4294 29.3666 14.0504 29.3666 13.7383 29.3411C13.4088 29.3141 13.0811 29.2547 12.7658 29.0941C12.2954 28.8544 11.9129 28.4719 11.6733 28.0015C11.5126 27.6862 11.4532 27.3585 11.4262 27.0291C11.4007 26.7169 11.4008 26.3379 11.4008 25.8987V14.5011C11.4008 14.0618 11.4007 13.6828 11.4262 13.3707C11.4532 13.0412 11.5126 12.7135 11.6733 12.3982C11.9129 11.9278 12.2954 11.5454 12.7658 11.3057C13.0811 11.145 13.4088 11.0856 13.7383 11.0587C14.0504 11.0332 14.4294 11.0332 14.8687 11.0332ZM13.874 12.7198C13.6476 12.7383 13.5637 12.7697 13.5224 12.7907C13.3656 12.8706 13.2382 12.9981 13.1583 13.1549C13.1373 13.1961 13.1059 13.28 13.0874 13.5064C13.0681 13.7425 13.0674 14.0527 13.0674 14.5332V25.8665C13.0674 26.347 13.0681 26.6572 13.0874 26.8933C13.1059 27.1197 13.1373 27.2037 13.1583 27.2449C13.2382 27.4017 13.3656 27.5291 13.5224 27.609C13.5637 27.63 13.6476 27.6614 13.874 27.6799C14.1101 27.6992 14.4203 27.6999 14.9008 27.6999H26.2341C26.7146 27.6999 27.0248 27.6992 27.2609 27.6799C27.4873 27.6614 27.5712 27.63 27.6124 27.609C27.7692 27.5291 27.8967 27.4017 27.9766 27.2449C27.9976 27.2037 28.029 27.1197 28.0475 26.8933C28.0668 26.6572 28.0674 26.347 28.0674 25.8665V14.5332C28.0674 14.0527 28.0668 13.7425 28.0475 13.5064C28.029 13.28 27.9976 13.1961 27.9766 13.1549C27.8967 12.9981 27.7692 12.8706 27.6124 12.7907C27.5712 12.7697 27.4873 12.7383 27.2609 12.7198C27.0248 12.7005 26.7146 12.6999 26.2341 12.6999H14.9008C14.4203 12.6999 14.1101 12.7005 13.874 12.7198Z" fill="#5D87F3"/>
<path fill-rule="evenodd" clip-rule="evenodd" d="M13.3651 6.86646H27.7698C28.6729 6.86645 29.4014 6.86644 29.9913 6.91464C30.5987 6.96426 31.1322 7.06911 31.6257 7.32059C32.4097 7.72007 33.0472 8.35749 33.4466 9.14149C33.6981 9.63507 33.803 10.1686 33.8526 10.7759C33.9008 11.3658 33.9008 12.0943 33.9008 12.9974V27.4021C33.9008 28.3053 33.9008 29.0337 33.8526 29.6236C33.803 30.231 33.6981 30.7645 33.4466 31.2581C33.0472 32.0421 32.4097 32.6795 31.6257 33.079C31.1322 33.3305 30.5987 33.4353 29.9913 33.4849C29.4014 33.5331 28.6729 33.5331 27.7698 33.5331H13.3651C12.4619 33.5331 11.7335 33.5331 11.1436 33.4849C10.5362 33.4353 10.0027 33.3305 9.50915 33.079C8.72515 32.6795 8.08773 32.0421 7.68826 31.2581C7.43677 30.7645 7.33192 30.231 7.2823 29.6236C7.2341 29.0337 7.23411 28.3053 7.23412 27.4021V12.9974C7.23411 12.0943 7.2341 11.3658 7.2823 10.7759C7.33192 10.1686 7.43677 9.63507 7.68826 9.14149C8.08773 8.35749 8.72515 7.72007 9.50915 7.32059C10.0027 7.06911 10.5362 6.96426 11.1436 6.91464C11.7335 6.86644 12.462 6.86645 13.3651 6.86646ZM11.2793 8.57577C10.775 8.61697 10.4853 8.69378 10.2658 8.80561C9.7954 9.04529 9.41295 9.42774 9.17327 9.89814C9.06144 10.1176 8.98463 10.4073 8.94343 10.9117C8.90143 11.4257 8.90078 12.0859 8.90078 13.0331V27.3664C8.90078 28.3136 8.90143 28.9739 8.94343 29.4879C8.98463 29.9922 9.06144 30.282 9.17327 30.5014C9.41295 30.9718 9.7954 31.3543 10.2658 31.594C10.4853 31.7058 10.775 31.7826 11.2793 31.8238C11.7933 31.8658 12.4536 31.8664 13.4008 31.8664H27.7341C28.6813 31.8664 29.3415 31.8658 29.8556 31.8238C30.3599 31.7826 30.6496 31.7058 30.8691 31.594C31.3395 31.3543 31.7219 30.9718 31.9616 30.5014C32.0734 30.282 32.1503 29.9922 32.1915 29.4879C32.2335 28.9739 32.2341 28.3136 32.2341 27.3664V13.0331C32.2341 12.0859 32.2335 11.4257 32.1915 10.9117C32.1503 10.4073 32.0734 10.1176 31.9616 9.89814C31.7219 9.42774 31.3395 9.04529 30.8691 8.80561C30.6496 8.69378 30.3599 8.61697 29.8556 8.57577C29.3415 8.53377 28.6813 8.53312 27.7341 8.53312H13.4008C12.4536 8.53312 11.7933 8.53377 11.2793 8.57577Z" fill="#3D3D3D"/>
<path fill-rule="evenodd" clip-rule="evenodd" d="M13.0674 3.5332C13.5277 3.5332 13.9008 3.9063 13.9008 4.36654V7.69987C13.9008 8.16011 13.5277 8.5332 13.0674 8.5332C12.6072 8.5332 12.2341 8.16011 12.2341 7.69987V4.36654C12.2341 3.9063 12.6072 3.5332 13.0674 3.5332ZM18.0674 3.5332C18.5277 3.5332 18.9008 3.9063 18.9008 4.36654V7.69987C18.9008 8.16011 18.5277 8.5332 18.0674 8.5332C17.6072 8.5332 17.2341 8.16011 17.2341 7.69987V4.36654C17.2341 3.9063 17.6072 3.5332 18.0674 3.5332ZM23.0674 3.5332C23.5277 3.5332 23.9008 3.9063 23.9008 4.36654V7.69987C23.9008 8.16011 23.5277 8.5332 23.0674 8.5332C22.6072 8.5332 22.2341 8.16011 22.2341 7.69987V4.36654C22.2341 3.9063 22.6072 3.5332 23.0674 3.5332ZM28.0674 3.5332C28.5277 3.5332 28.9008 3.9063 28.9008 4.36654V7.69987C28.9008 8.16011 28.5277 8.5332 28.0674 8.5332C27.6072 8.5332 27.2341 8.16011 27.2341 7.69987V4.36654C27.2341 3.9063 27.6072 3.5332 28.0674 3.5332Z" fill="#3D3D3D"/>
<path fill-rule="evenodd" clip-rule="evenodd" d="M13.0674 31.8665C13.5277 31.8665 13.9008 32.2396 13.9008 32.6998V36.0331C13.9008 36.4934 13.5277 36.8665 13.0674 36.8665C12.6072 36.8665 12.2341 36.4934 12.2341 36.0331V32.6998C12.2341 32.2396 12.6072 31.8665 13.0674 31.8665ZM18.0674 31.8665C18.5277 31.8665 18.9008 32.2396 18.9008 32.6998V36.0331C18.9008 36.4934 18.5277 36.8665 18.0674 36.8665C17.6072 36.8665 17.2341 36.4934 17.2341 36.0331V32.6998C17.2341 32.2396 17.6072 31.8665 18.0674 31.8665ZM23.0674 31.8665C23.5277 31.8665 23.9008 32.2396 23.9008 32.6998V36.0331C23.9008 36.4934 23.5277 36.8665 23.0674 36.8665C22.6072 36.8665 22.2341 36.4934 22.2341 36.0331V32.6998C22.2341 32.2396 22.6072 31.8665 23.0674 31.8665ZM28.0674 31.8665C28.5277 31.8665 28.9008 32.2396 28.9008 32.6998V36.0331C28.9008 36.4934 28.5277 36.8665 28.0674 36.8665C27.6072 36.8665 27.2341 36.4934 27.2341 36.0331V32.6998C27.2341 32.2396 27.6072 31.8665 28.0674 31.8665Z" fill="#3D3D3D"/>
<path fill-rule="evenodd" clip-rule="evenodd" d="M4.31744 13.1165C4.31744 12.6563 4.69054 12.2832 5.15078 12.2832H7.65078C8.11102 12.2832 8.48411 12.6563 8.48411 13.1165C8.48411 13.5768 8.11102 13.9499 7.65078 13.9499H5.15078C4.69054 13.9499 4.31744 13.5768 4.31744 13.1165ZM4.31744 18.1165C4.31744 17.6563 4.69054 17.2832 5.15078 17.2832H7.65078C8.11102 17.2832 8.48411 17.6563 8.48411 18.1165C8.48411 18.5768 8.11102 18.9499 7.65078 18.9499H5.15078C4.69054 18.9499 4.31744 18.5768 4.31744 18.1165ZM4.31744 23.1165C4.31744 22.6563 4.69054 22.2832 5.15078 22.2832H7.65078C8.11102 22.2832 8.48411 22.6563 8.48411 23.1165C8.48411 23.5768 8.11102 23.9499 7.65078 23.9499H5.15078C4.69054 23.9499 4.31744 23.5768 4.31744 23.1165ZM4.31744 28.1165C4.31744 27.6563 4.69054 27.2832 5.15078 27.2832H7.65078C8.11102 27.2832 8.48411 27.6563 8.48411 28.1165C8.48411 28.5768 8.11102 28.9499 7.65078 28.9499H5.15078C4.69054 28.9499 4.31744 28.5768 4.31744 28.1165Z" fill="#3D3D3D"/>
<path fill-rule="evenodd" clip-rule="evenodd" d="M32.6508 13.1165C32.6508 12.6563 33.0239 12.2832 33.4841 12.2832H35.9841C36.4444 12.2832 36.8175 12.6563 36.8175 13.1165C36.8175 13.5768 36.4444 13.9499 35.9841 13.9499H33.4841C33.0239 13.9499 32.6508 13.5768 32.6508 13.1165ZM32.6508 18.1165C32.6508 17.6563 33.0239 17.2832 33.4841 17.2832H35.9841C36.4444 17.2832 36.8175 17.6563 36.8175 18.1165C36.8175 18.5768 36.4444 18.9499 35.9841 18.9499H33.4841C33.0239 18.9499 32.6508 18.5768 32.6508 18.1165ZM32.6508 23.1165C32.6508 22.6563 33.0239 22.2832 33.4841 22.2832H35.9841C36.4444 22.2832 36.8175 22.6563 36.8175 23.1165C36.8175 23.5768 36.4444 23.9499 35.9841 23.9499H33.4841C33.0239 23.9499 32.6508 23.5768 32.6508 23.1165ZM32.6508 28.1165C32.6508 27.6563 33.0239 27.2832 33.4841 27.2832H35.9841C36.4444 27.2832 36.8175 27.6563 36.8175 28.1165C36.8175 28.5768 36.4444 28.9499 35.9841 28.9499H33.4841C33.0239 28.9499 32.6508 28.5768 32.6508 28.1165Z" fill="#3D3D3D"/>
</svg>
